<svg xmlns="http://www.w3.org/2000/svg" xmlns:xlink="http://www.w3.org/1999/xlink" xmlns:lucid="lucid" width="919.67" height="557.29"><g transform="translate(-118.5 281.5)" lucid:page-tab-id="0_0"><path d="M256.67 4.3c0 29.57-26.12 53.56-58.34 53.56-32.2 0-58.33-24-58.33-53.57 0-29.6 26.12-53.6 58.33-53.6 32.22 0 58.34 24 58.34 53.6z" stroke="#5e5e5e" stroke-width="3" fill="#fff"/><use xlink:href="#a" transform="matrix(1,0,0,1,145,-44.28571428571429) translate(28.839506172839513 54.52777777777777)"/><path d="M656.67 4.3c0 31.54-26.12 57.13-58.34 57.13-32.2 0-58.33-25.59-58.33-57.14 0-31.57 26.12-57.16 58.33-57.16 32.22 0 58.34 25.6 58.34 57.15z" stroke="#5e5e5e" stroke-width="3" fill="#fff"/><use xlink:href="#b" transform="matrix(1,0,0,1,545,-47.85714285714287) translate(8.22222222222225 55.37499999999999)"/><path d="M259.17 4.3H520" stroke="#5e5e5e" stroke-width="2" fill="none"/><path d="M259.2 5.26h-1.07l.04-.95-.02-1h1.04z" stroke="#5e5e5e" stroke-width=".05" fill="#5e5e5e"/><path d="M535.26 4.3L521 8.9V-.35z" stroke="#5e5e5e" stroke-width="2" fill="#5e5e5e"/><use xlink:href="#c" transform="matrix(1,0,0,1,300.90123475237044,-21.047619047619058) translate(0.0049999999999954525 14.222222222222223)"/><path d="M1016.67 197.14c0 31.56-26.12 57.15-58.34 57.15-32.2 0-58.33-25.6-58.33-57.16 0-31.56 26.12-57.14 58.33-57.14 32.22 0 58.34 25.58 58.34 57.14z" stroke="#5e5e5e" stroke-width="3" fill="#fff"/><use xlink:href="#d" transform="matrix(1,0,0,1,905,145) translate(0.4444444444444784 57.15277777777777)"/><path d="M1016.67-202.86c0 31.56-26.12 57.15-58.34 57.15-32.2 0-58.33-25.6-58.33-57.16 0-31.56 26.12-57.14 58.33-57.14 32.22 0 58.34 25.58 58.34 57.14z" stroke="#5e5e5e" stroke-width="3" fill="#fff"/><use xlink:href="#e" transform="matrix(1,0,0,1,905,-255) translate(9.734567901234591 57.15277777777777)"/><path d="M659.17 4.3H880" stroke="#5e5e5e" stroke-width="2" fill="none"/><path d="M659.2 5.26h-1.07l.04-.95-.02-1h1.04z" stroke="#5e5e5e" stroke-width=".05" fill="#5e5e5e"/><path d="M895.26 4.3L881 8.9V-.35z" stroke="#5e5e5e" stroke-width="2" fill="#5e5e5e"/><use xlink:href="#f" transform="matrix(1,0,0,1,692.9753088106347,-21.047619047619058) translate(0.0049999999999954525 14.222222222222223)"/><use xlink:href="#g" transform="matrix(1,0,0,1,692.9753088106347,-21.047619047619058) translate(145.53586419753088 14.222222222222223)"/><use xlink:href="#h" transform="matrix(1,0,0,1,692.9753088106347,-21.047619047619058) translate(160.84450617283952 14.222222222222223)"/><use xlink:href="#i" transform="matrix(1,0,0,1,707.0987656007582,8.285714285714278) translate(0.0049999999999954525 14.222222222222223)"/><use xlink:href="#g" transform="matrix(1,0,0,1,707.0987656007582,8.285714285714278) translate(117.28895061728394 14.222222222222223)"/><use xlink:href="#h" transform="matrix(1,0,0,1,707.0987656007582,8.285714285714278) translate(132.59759259259258 14.222222222222223)"/><path d="M1016.67 4.3c0 31.54-26.12 57.13-58.34 57.13-32.2 0-58.33-25.59-58.33-57.14 0-31.57 26.12-57.16 58.33-57.16 32.22 0 58.34 25.6 58.34 57.15z" stroke="#5e5e5e" stroke-width="3" fill="#fff"/><use xlink:href="#j" transform="matrix(1,0,0,1,905,-47.85714285714287) translate(26.91666666666668 55.37499999999999)"/><path d="M199.3-69.3h-1.94v-100.03h1.95z" stroke="#5e5e5e" stroke-width=".05" fill="#5e5e5e"/><path stroke="#5e5e5e" stroke-width=".05" fill="#5e5e5e"/><path d="M198.33-54.02L193.7-68.3h9.27z" fill="#5e5e5e"/><path d="M198.33-50.87l-5.97-18.4h11.95zm-3.3-16.44l3.3 10.12 3.3-10.13z" stroke="#5e5e5e" stroke-width=".05" fill="#5e5e5e"/><use xlink:href="#k" transform="matrix(1,0,0,1,162.06172839506172,-190.66666666666666) translate(0.005000000000002558 14.222222222222223)"/><use xlink:href="#g" transform="matrix(1,0,0,1,162.06172839506172,-190.66666666666666) translate(47.363024691358035 14.222222222222223)"/><use xlink:href="#l" transform="matrix(1,0,0,1,162.06172839506172,-190.66666666666666) translate(62.67166666666668 14.222222222222223)"/><path d="M598.33-55.36v-141.5a6 6 0 0 1 6-6H889.5" stroke="#5e5e5e" stroke-width="2" fill="none"/><path d="M599.3-54.32l-.94-.04-1 .02v-1.04h1.95z" stroke="#5e5e5e" stroke-width=".05" fill="#5e5e5e"/><path d="M896.53-202.86l-12.9 7.64v-15.27z" stroke="#5e5e5e" stroke-width="2" fill="#5e5e5e"/><use xlink:href="#f" transform="matrix(1,0,0,1,666.3978819582169,-228.19047619047618) translate(0.0049999999999954525 14.222222222222223)"/><use xlink:href="#g" transform="matrix(1,0,0,1,666.3978819582169,-228.19047619047618) translate(145.53586419753088 14.222222222222223)"/><use xlink:href="#h" transform="matrix(1,0,0,1,666.3978819582169,-228.19047619047618) translate(160.84450617283952 14.222222222222223)"/><g><use xlink:href="#i" transform="matrix(1,0,0,1,683.4320987654321,-198.85714285714286) translate(0.0049999999999954525 14.222222222222223)"/><use xlink:href="#g" transform="matrix(1,0,0,1,683.4320987654321,-198.85714285714286) translate(117.28895061728394 14.222222222222223)"/><use xlink:href="#l" transform="matrix(1,0,0,1,683.4320987654321,-198.85714285714286) translate(132.59759259259258 14.222222222222223)"/></g><path d="M598.33 63.93v127.2a6 6 0 0 0 6 6H889.5" stroke="#5e5e5e" stroke-width="2" fill="none"/><path d="M598.3 62.93l1-.02v1.05h-1.94V62.9z" stroke="#5e5e5e" stroke-width=".05" fill="#5e5e5e"/><path d="M896.53 197.14l-12.9 7.64V189.5z" stroke="#5e5e5e" stroke-width="2" fill="#5e5e5e"/><g><use xlink:href="#m" transform="matrix(1,0,0,1,705.604938271605,171.80952380952382) translate(0.005000000000002558 14.222222222222223)"/><use xlink:href="#g" transform="matrix(1,0,0,1,705.604938271605,171.80952380952382) translate(94.27660493827162 14.222222222222223)"/><use xlink:href="#n" transform="matrix(1,0,0,1,705.604938271605,171.80952380952382) translate(109.58524691358028 14.222222222222223)"/></g><defs><path d="M33 0v-248h34V0H33" id="o"/><path d="M30-248c118-7 216 8 213 122C240-48 200 0 122 0H30v-248zM63-27c89 8 146-16 146-99s-60-101-146-95v194" id="p"/><path d="M30 0v-248h33v221h125V0H30" id="q"/><path d="M30 0v-248h187v28H63v79h144v27H63v87h162V0H30" id="r"/><g id="a"><use transform="matrix(0.061728395061728385,0,0,0.061728395061728385,0,0)" xlink:href="#o"/><use transform="matrix(0.061728395061728385,0,0,0.061728395061728385,6.1728395061728385,0)" xlink:href="#p"/><use transform="matrix(0.061728395061728385,0,0,0.061728395061728385,22.16049382716049,0)" xlink:href="#q"/><use transform="matrix(0.061728395061728385,0,0,0.061728395061728385,34.50617283950616,0)" xlink:href="#r"/></g><path d="M137 0h-34L2-248h35l83 218 83-218h36" id="s"/><path d="M141-36C126-15 110 5 73 4 37 3 15-17 15-53c-1-64 63-63 125-63 3-35-9-54-41-54-24 1-41 7-42 31l-33-3c5-37 33-52 76-52 45 0 72 20 72 64v82c-1 20 7 32 28 27v20c-31 9-61-2-59-35zM48-53c0 20 12 33 32 33 41-3 63-29 60-74-43 2-92-5-92 41" id="t"/><path d="M24 0v-261h32V0H24" id="u"/><path d="M24-231v-30h32v30H24zM24 0v-190h32V0H24" id="v"/><path d="M85-194c31 0 48 13 60 33l-1-100h32l1 261h-30c-2-10 0-23-3-31C134-8 116 4 85 4 32 4 16-35 15-94c0-66 23-100 70-100zm9 24c-40 0-46 34-46 75 0 40 6 74 45 74 42 0 51-32 51-76 0-42-9-74-50-73" id="w"/><path d="M96-169c-40 0-48 33-48 73s9 75 48 75c24 0 41-14 43-38l32 2c-6 37-31 61-74 61-59 0-76-41-82-99-10-93 101-131 147-64 4 7 5 14 7 22l-32 3c-4-21-16-35-41-35" id="x"/><path d="M100-194c62-1 85 37 85 99 1 63-27 99-86 99S16-35 15-95c0-66 28-99 85-99zM99-20c44 1 53-31 53-75 0-43-8-75-51-75s-53 32-53 75 10 74 51 75" id="y"/><path d="M117-194c89-4 53 116 60 194h-32v-121c0-31-8-49-39-48C34-167 62-67 57 0H25l-1-190h30c1 10-1 24 2 32 11-22 29-35 61-36" id="z"/><g id="b"><use transform="matrix(0.055555555555555525,0,0,0.055555555555555525,0,0)" xlink:href="#s"/><use transform="matrix(0.055555555555555525,0,0,0.055555555555555525,11.833333333333325,0)" xlink:href="#t"/><use transform="matrix(0.055555555555555525,0,0,0.055555555555555525,22.94444444444443,0)" xlink:href="#u"/><use transform="matrix(0.055555555555555525,0,0,0.055555555555555525,27.333333333333314,0)" xlink:href="#v"/><use transform="matrix(0.055555555555555525,0,0,0.055555555555555525,31.722222222222197,0)" xlink:href="#w"/><use transform="matrix(0.055555555555555525,0,0,0.055555555555555525,42.83333333333331,0)" xlink:href="#t"/><use transform="matrix(0.055555555555555525,0,0,0.055555555555555525,53.944444444444414,0)" xlink:href="#x"/><use transform="matrix(0.055555555555555525,0,0,0.055555555555555525,63.94444444444441,0)" xlink:href="#v"/><use transform="matrix(0.055555555555555525,0,0,0.055555555555555525,68.3333333333333,0)" xlink:href="#y"/><use transform="matrix(0.055555555555555525,0,0,0.055555555555555525,79.4444444444444,0)" xlink:href="#z"/></g><path fill="#333" d="M136-208V0H84v-208H4v-40h212v40h-80" id="A"/><path fill="#333" d="M199 0l-22-63H83L61 0H9l90-248h61L250 0h-51zm-33-102l-36-108c-10 38-24 72-36 108h72" id="B"/><path fill="#333" d="M240-174c0 40-23 61-54 70L253 0h-59l-57-94H76V0H24v-248c93 4 217-23 216 74zM76-134c48-2 112 12 112-38 0-48-66-32-112-35v73" id="C"/><path fill="#333" d="M176-78C186 10 51 31 16-35c-5-9-9-19-11-32l52-8c4 21 12 37 35 38 23 0 32-16 32-40v-130H75v-41h101v170" id="D"/><path fill="#333" d="M24 0v-248h195v40H76v63h132v40H76v65h150V0H24" id="E"/><path fill="#333" d="M-4 44V30h207v14H-4" id="F"/><path fill="#333" d="M67-125c0 53 21 87 73 88 37 1 54-22 65-47l45 17C233-25 199 4 140 4 58 4 20-42 15-125 8-235 124-281 211-232c18 10 29 29 36 50l-46 12c-8-25-30-41-62-41-52 0-71 34-72 86" id="G"/><path fill="#333" d="M24 0v-248h52V0H24" id="H"/><path fill="#333" d="M182-130c37 4 62 22 62 59C244 23 116-4 24 0v-248c84 5 203-23 205 63 0 31-19 50-47 55zM76-148c40-3 101 13 101-30 0-44-60-28-101-31v61zm0 110c48-3 116 14 116-37 0-48-69-32-116-35v72" id="I"/><path fill="#333" d="M24-248c120-7 223 5 221 122C244-46 201 0 124 0H24v-248zM76-40c74 7 117-18 117-86 0-67-45-88-117-82v168" id="J"/><path fill="#333" d="M15-148v-39h180v39H15zm0 97v-39h180v39H15" id="K"/><path fill="#333" d="M23 0v-37h61v-169l-59 37v-38l62-41h46v211h57V0H23" id="L"/><g id="c"><use transform="matrix(0.04938271604938272,0,0,0.04938271604938272,0,0)" xlink:href="#A"/><use transform="matrix(0.04938271604938272,0,0,0.04938271604938272,9.481481481481481,0)" xlink:href="#B"/><use transform="matrix(0.04938271604938272,0,0,0.04938271604938272,22.271604938271608,0)" xlink:href="#C"/><use transform="matrix(0.04938271604938272,0,0,0.04938271604938272,35.061728395061735,0)" xlink:href="#D"/><use transform="matrix(0.04938271604938272,0,0,0.04938271604938272,44.93827160493828,0)" xlink:href="#E"/><use transform="matrix(0.04938271604938272,0,0,0.04938271604938272,56.79012345679014,0)" xlink:href="#A"/><use transform="matrix(0.04938271604938272,0,0,0.04938271604938272,66.27160493827161,0)" xlink:href="#B"/><use transform="matrix(0.04938271604938272,0,0,0.04938271604938272,79.06172839506173,0)" xlink:href="#F"/><use transform="matrix(0.04938271604938272,0,0,0.04938271604938272,88.93827160493828,0)" xlink:href="#C"/><use transform="matrix(0.04938271604938272,0,0,0.04938271604938272,101.7283950617284,0)" xlink:href="#E"/><use transform="matrix(0.04938271604938272,0,0,0.04938271604938272,113.58024691358025,0)" xlink:href="#G"/><use transform="matrix(0.04938271604938272,0,0,0.04938271604938272,126.37037037037038,0)" xlink:href="#H"/><use transform="matrix(0.04938271604938272,0,0,0.04938271604938272,131.30864197530866,0)" xlink:href="#I"/><use transform="matrix(0.04938271604938272,0,0,0.04938271604938272,144.0987654320988,0)" xlink:href="#H"/><use transform="matrix(0.04938271604938272,0,0,0.04938271604938272,149.03703703703707,0)" xlink:href="#J"/><use transform="matrix(0.04938271604938272,0,0,0.04938271604938272,161.8271604938272,0)" xlink:href="#B"/><use transform="matrix(0.04938271604938272,0,0,0.04938271604938272,174.61728395061732,0)" xlink:href="#K"/><use transform="matrix(0.04938271604938272,0,0,0.04938271604938272,184.9876543209877,0)" xlink:href="#L"/></g><path d="M160-131c35 5 61 23 61 61C221 17 115-2 30 0v-248c76 3 177-17 177 60 0 33-19 50-47 57zm-97-11c50-1 110 9 110-42 0-47-63-36-110-37v79zm0 115c55-2 124 14 124-45 0-56-70-42-124-44v89" id="M"/><path d="M145-31C134-9 116 4 85 4 32 4 16-35 15-94c0-59 17-99 70-100 32-1 48 14 60 33 0-11-1-24 2-32h30l-1 268h-32zM93-21c41 0 51-33 51-76s-8-73-50-73c-40 0-46 35-46 75s5 74 45 74" id="N"/><path d="M84 4C-5 8 30-112 23-190h32v120c0 31 7 50 39 49 72-2 45-101 50-169h31l1 190h-30c-1-10 1-25-2-33-11 22-28 36-60 37" id="O"/><path d="M100-194c63 0 86 42 84 106H49c0 40 14 67 53 68 26 1 43-12 49-29l28 8c-11 28-37 45-77 45C44 4 14-33 15-96c1-61 26-98 85-98zm52 81c6-60-76-77-97-28-3 7-6 17-6 28h103" id="P"/><g id="d"><use transform="matrix(0.06172839506172837,0,0,0.06172839506172837,0,0)" xlink:href="#M"/><use transform="matrix(0.06172839506172837,0,0,0.06172839506172837,14.81481481481481,0)" xlink:href="#u"/><use transform="matrix(0.06172839506172837,0,0,0.06172839506172837,19.69135802469135,0)" xlink:href="#y"/><use transform="matrix(0.06172839506172837,0,0,0.06172839506172837,32.037037037037024,0)" xlink:href="#N"/><use transform="matrix(0.06172839506172837,0,0,0.06172839506172837,44.382716049382694,0)" xlink:href="#O"/><use transform="matrix(0.06172839506172837,0,0,0.06172839506172837,56.728395061728364,0)" xlink:href="#P"/><use transform="matrix(0.06172839506172837,0,0,0.06172839506172837,69.07407407407403,0)" xlink:href="#t"/><use transform="matrix(0.06172839506172837,0,0,0.06172839506172837,81.4197530864197,0)" xlink:href="#w"/><use transform="matrix(0.06172839506172837,0,0,0.06172839506172837,93.76543209876537,0)" xlink:href="#y"/></g><path d="M115-194c55 1 70 41 70 98S169 2 115 4C84 4 66-9 55-30l1 105H24l-1-265h31l2 30c10-21 28-34 59-34zm-8 174c40 0 45-34 45-75s-6-73-45-74c-42 0-51 32-51 76 0 43 10 73 51 73" id="Q"/><path d="M135-143c-3-34-86-38-87 0 15 53 115 12 119 90S17 21 10-45l28-5c4 36 97 45 98 0-10-56-113-15-118-90-4-57 82-63 122-42 12 7 21 19 24 35" id="R"/><path d="M59-47c-2 24 18 29 38 22v24C64 9 27 4 27-40v-127H5v-23h24l9-43h21v43h35v23H59v120" id="S"/><g id="e"><use transform="matrix(0.06172839506172837,0,0,0.06172839506172837,0,0)" xlink:href="#p"/><use transform="matrix(0.06172839506172837,0,0,0.06172839506172837,15.987654320987648,0)" xlink:href="#P"/><use transform="matrix(0.06172839506172837,0,0,0.06172839506172837,28.33333333333332,0)" xlink:href="#Q"/><use transform="matrix(0.06172839506172837,0,0,0.06172839506172837,40.679012345679,0)" xlink:href="#y"/><use transform="matrix(0.06172839506172837,0,0,0.06172839506172837,53.02469135802467,0)" xlink:href="#R"/><use transform="matrix(0.06172839506172837,0,0,0.06172839506172837,64.13580246913577,0)" xlink:href="#v"/><use transform="matrix(0.06172839506172837,0,0,0.06172839506172837,69.01234567901231,0)" xlink:href="#S"/><use transform="matrix(0.06172839506172837,0,0,0.06172839506172837,75.18518518518515,0)" xlink:href="#y"/></g><path fill="#333" d="M24-248c93 1 206-16 204 79-1 75-69 88-152 82V0H24v-248zm52 121c47 0 100 7 100-41 0-47-54-39-100-39v80" id="T"/><path fill="#333" d="M175 0L67-191c6 58 2 128 3 191H24v-248h59L193-55c-6-58-2-129-3-193h46V0h-61" id="U"/><path fill="#333" d="M140-251c80 0 125 45 125 126S219 4 139 4C58 4 15-44 15-125s44-126 125-126zm-1 214c52 0 73-35 73-88 0-50-21-86-72-86-52 0-73 35-73 86s22 88 72 88" id="V"/><g id="f"><use transform="matrix(0.04938271604938272,0,0,0.04938271604938272,0,0)" xlink:href="#T"/><use transform="matrix(0.04938271604938272,0,0,0.04938271604938272,11.851851851851853,0)" xlink:href="#H"/><use transform="matrix(0.04938271604938272,0,0,0.04938271604938272,16.790123456790127,0)" xlink:href="#U"/><use transform="matrix(0.04938271604938272,0,0,0.04938271604938272,29.580246913580254,0)" xlink:href="#F"/><use transform="matrix(0.04938271604938272,0,0,0.04938271604938272,39.4567901234568,0)" xlink:href="#G"/><use transform="matrix(0.04938271604938272,0,0,0.04938271604938272,52.24691358024693,0)" xlink:href="#V"/><use transform="matrix(0.04938271604938272,0,0,0.04938271604938272,66.07407407407409,0)" xlink:href="#C"/><use transform="matrix(0.04938271604938272,0,0,0.04938271604938272,78.86419753086422,0)" xlink:href="#C"/><use transform="matrix(0.04938271604938272,0,0,0.04938271604938272,91.65432098765434,0)" xlink:href="#E"/><use transform="matrix(0.04938271604938272,0,0,0.04938271604938272,103.50617283950618,0)" xlink:href="#G"/><use transform="matrix(0.04938271604938272,0,0,0.04938271604938272,116.29629629629633,0)" xlink:href="#A"/><use transform="matrix(0.04938271604938272,0,0,0.04938271604938272,126.76543209876544,0)" xlink:href="#V"/></g><use transform="matrix(0.04938271604938272,0,0,0.04938271604938272,0,0)" xlink:href="#K" id="g"/><use transform="matrix(0.04938271604938272,0,0,0.04938271604938272,0,0)" xlink:href="#L" id="h"/><path fill="#333" d="M169-182c-1-43-94-46-97-3 18 66 151 10 154 114 3 95-165 93-204 36-6-8-10-19-12-30l50-8c3 46 112 56 116 5-17-69-150-10-154-114-4-87 153-88 188-35 5 8 8 18 10 28" id="W"/><g id="i"><use transform="matrix(0.04938271604938272,0,0,0.04938271604938272,0,0)" xlink:href="#A"/><use transform="matrix(0.04938271604938272,0,0,0.04938271604938272,10.814814814814815,0)" xlink:href="#H"/><use transform="matrix(0.04938271604938272,0,0,0.04938271604938272,15.753086419753087,0)" xlink:href="#T"/><use transform="matrix(0.04938271604938272,0,0,0.04938271604938272,27.60493827160494,0)" xlink:href="#V"/><use transform="matrix(0.04938271604938272,0,0,0.04938271604938272,41.4320987654321,0)" xlink:href="#F"/><use transform="matrix(0.04938271604938272,0,0,0.04938271604938272,51.308641975308646,0)" xlink:href="#A"/><use transform="matrix(0.04938271604938272,0,0,0.04938271604938272,62.12345679012346,0)" xlink:href="#C"/><use transform="matrix(0.04938271604938272,0,0,0.04938271604938272,74.91358024691358,0)" xlink:href="#B"/><use transform="matrix(0.04938271604938272,0,0,0.04938271604938272,87.70370370370371,0)" xlink:href="#U"/><use transform="matrix(0.04938271604938272,0,0,0.04938271604938272,100.49382716049384,0)" xlink:href="#W"/></g><path d="M233-177c-1 41-23 64-60 70L243 0h-38l-65-103H63V0H30v-248c88 3 205-21 203 71zM63-129c60-2 137 13 137-47 0-61-80-42-137-45v92" id="X"/><path d="M114-163C36-179 61-72 57 0H25l-1-190h30c1 12-1 29 2 39 6-27 23-49 58-41v29" id="Y"/><g id="j"><use transform="matrix(0.055555555555555525,0,0,0.055555555555555525,0,0)" xlink:href="#X"/><use transform="matrix(0.055555555555555525,0,0,0.055555555555555525,14.38888888888888,0)" xlink:href="#P"/><use transform="matrix(0.055555555555555525,0,0,0.055555555555555525,25.499999999999986,0)" xlink:href="#S"/><use transform="matrix(0.055555555555555525,0,0,0.055555555555555525,31.05555555555554,0)" xlink:href="#v"/><use transform="matrix(0.055555555555555525,0,0,0.055555555555555525,35.44444444444443,0)" xlink:href="#Y"/><use transform="matrix(0.055555555555555525,0,0,0.055555555555555525,42.055555555555536,0)" xlink:href="#y"/></g><path fill="#333" d="M135-150c-39-12-60 13-60 57V0H25l-1-190h47c2 13-1 29 3 40 6-28 27-53 61-41v41" id="Z"/><path fill="#333" d="M185-48c-13 30-37 53-82 52C43 2 14-33 14-96s30-98 90-98c62 0 83 45 84 108H66c0 31 8 55 39 56 18 0 30-7 34-22zm-45-69c5-46-57-63-70-21-2 6-4 13-4 21h74" id="aa"/><path fill="#333" d="M137-138c1-29-70-34-71-4 15 46 118 7 119 86 1 83-164 76-172 9l43-7c4 19 20 25 44 25 33 8 57-30 24-41C81-84 22-81 20-136c-2-80 154-74 161-7" id="ab"/><path fill="#333" d="M115-3C79 11 28 4 28-45v-112H4v-33h27l15-45h31v45h36v33H77v99c-1 23 16 31 38 25v30" id="ac"/><g id="k"><use transform="matrix(0.04938271604938272,0,0,0.04938271604938272,0,0)" xlink:href="#Z"/><use transform="matrix(0.04938271604938272,0,0,0.04938271604938272,6.913580246913581,0)" xlink:href="#aa"/><use transform="matrix(0.04938271604938272,0,0,0.04938271604938272,16.790123456790127,0)" xlink:href="#ab"/><use transform="matrix(0.04938271604938272,0,0,0.04938271604938272,26.666666666666668,0)" xlink:href="#aa"/><use transform="matrix(0.04938271604938272,0,0,0.04938271604938272,36.543209876543216,0)" xlink:href="#ac"/></g><path fill="#333" d="M101-251c68 0 84 54 84 127C185-50 166 4 99 4S15-52 14-124c-1-75 17-127 87-127zm-1 216c37-5 36-46 36-89s4-89-36-89c-39 0-36 45-36 89 0 43-3 85 36 89" id="ad"/><use transform="matrix(0.04938271604938272,0,0,0.04938271604938272,0,0)" xlink:href="#ad" id="l"/><g id="m"><use transform="matrix(0.04938271604938272,0,0,0.04938271604938272,0,0)" xlink:href="#H"/><use transform="matrix(0.04938271604938272,0,0,0.04938271604938272,4.938271604938272,0)" xlink:href="#U"/><use transform="matrix(0.04938271604938272,0,0,0.04938271604938272,17.7283950617284,0)" xlink:href="#A"/><use transform="matrix(0.04938271604938272,0,0,0.04938271604938272,28.54320987654322,0)" xlink:href="#E"/><use transform="matrix(0.04938271604938272,0,0,0.04938271604938272,40.39506172839507,0)" xlink:href="#U"/><use transform="matrix(0.04938271604938272,0,0,0.04938271604938272,53.1851851851852,0)" xlink:href="#A"/><use transform="matrix(0.04938271604938272,0,0,0.04938271604938272,63.65432098765434,0)" xlink:href="#V"/><use transform="matrix(0.04938271604938272,0,0,0.04938271604938272,77.4814814814815,0)" xlink:href="#W"/></g><path fill="#333" d="M128-127c34 4 56 21 59 58 7 91-148 94-172 28-4-9-6-17-7-26l51-5c1 24 16 35 40 36 23 0 39-12 38-36-1-31-31-36-65-34v-40c32 2 59-3 59-33 0-20-13-33-34-33s-33 13-35 32l-50-3c6-44 37-68 86-68 50 0 83 20 83 66 0 35-22 52-53 58" id="ae"/><use transform="matrix(0.04938271604938272,0,0,0.04938271604938272,0,0)" xlink:href="#ae" id="n"/></defs></g></svg>